HIERARCHY
ROOT Hips
{
    OFFSET 0.000000 0.000000 0.000000
    CHANNELS 6 Xposition Yposition Zposition Zrotation Xrotation Yrotation
    JOINT Spine
    {
        OFFSET -0.000000 14.517291 0.000000
        CHANNELS 3 Zrotation Xrotation Yrotation
        JOINT Spine1
        {
            OFFSET -0.000000 37.558300 0.000000
            CHANNELS 3 Zrotation Xrotation Yrotation
            JOINT Neck
            {
                OFFSET -0.000000 37.404057 3.400369
                CHANNELS 3 Zrotation Xrotation Yrotation
                JOINT Head
                {
                    OFFSET -0.000000 24.785618 -3.540803
                    CHANNELS 3 Zrotation Xrotation Yrotation
                    End Site
                    {
                        OFFSET -0.000000 35.408028 0.000000
                    }
                }
            }
            JOINT LeftShoulder
            {
                OFFSET 6.992933 33.973492 -0.192664
                CHANNELS 3 Zrotation Xrotation Yrotation
                JOINT LeftArm
                {
                    OFFSET 21.527611 0.000000 0.000000
                    CHANNELS 3 Zrotation Xrotation Yrotation
                    JOINT LeftForeArm
                    {
                        OFFSET 56.353916 0.000000 0.000000
                        CHANNELS 3 Zrotation Xrotation Yrotation
                        JOINT LeftHand
                        {
                            OFFSET 47.774071 0.000000 0.000000
                            CHANNELS 3 Zrotation Xrotation Yrotation
                            End Site
                            {
                                OFFSET 26.556021 0.000000 0.000000
                            }
                        }
                    }
                }
            }
            JOINT RightShoulder
            {
                OFFSET -7.065357 33.973492 -0.192664
                CHANNELS 3 Zrotation Xrotation Yrotation
                JOINT RightArm
                {
                    OFFSET -21.527611 0.000000 0.000000
                    CHANNELS 3 Zrotation Xrotation Yrotation
                    JOINT RightForeArm
                    {
                        OFFSET -56.353916 0.000000 0.000000
                        CHANNELS 3 Zrotation Xrotation Yrotation
                        JOINT RightHand
                        {
                            OFFSET -47.774071 0.000000 0.000000
                            CHANNELS 3 Zrotation Xrotation Yrotation
                            End Site
                            {
                                OFFSET -26.556021 0.000000 0.000000
                            }
                        }
                    }
                }
            }
        }
    }
    JOINT LeftUpLeg
    {
        OFFSET 17.704014 0.000000 0.000000
        CHANNELS 3 Zrotation Xrotation Yrotation
        JOINT LeftLeg
        {
            OFFSET -0.000000 -81.181816 0.000000
            CHANNELS 3 Zrotation Xrotation Yrotation
            JOINT LeftFoot
            {
                OFFSET -0.000000 -62.821102 0.000000
                CHANNELS 3 Zrotation Xrotation Yrotation
                JOINT LeftToeBase
                {
                    OFFSET -0.000000 -11.507608 26.556021
                    CHANNELS 3 Zrotation Xrotation Yrotation
                    End Site
                    {
                        OFFSET -0.000000 0.000000 7.081605
                    }
                }
            }
        }
    }
    JOINT RightUpLeg
    {
        OFFSET -17.704014 0.000000 0.000000
        CHANNELS 3 Zrotation Xrotation Yrotation
        JOINT RightLeg
        {
            OFFSET -0.000000 -81.181816 0.000000
            CHANNELS 3 Zrotation Xrotation Yrotation
            JOINT RightFoot
            {
                OFFSET -0.000000 -62.821102 0.000000
                CHANNELS 3 Zrotation Xrotation Yrotation
                JOINT RightToeBase
                {
                    OFFSET -0.000000 -11.507608 26.556021
                    CHANNELS 3 Zrotation Xrotation Yrotation
                    End Site
                    {
                        OFFSET -0.000000 0.000000 7.081605
                    }
                }
            }
        }
    }
}
MOTION
Frames:    13
Frame Time:    0.008333
16.236036    154.851563    -109.336182    -0.614020    -9.192666    45.143379    -2.751176    2.455378    -1.303247    -3.496588    2.044282    -0.392020    1.993263    8.693324    -19.658377    19.649263    -2.444990    -17.508270    2.929789    6.387753    -15.760545    -24.294535    1.438880    -37.907417    20.343639    -35.542645    -36.231995    0.519202    -29.959663    -19.897060    -0.998209    5.987453    -5.806800    32.712250    -13.652276    49.788998    -25.852579    -14.419992    65.436371    -13.455869    -2.006581    36.445305    19.620968    -6.427248    -1.884010    -16.172005    40.756023    -16.691067    8.128365    -27.480486    43.461639    0.000000    0.000000    0.000000    -17.835400    -14.323227    -15.309020    13.498595    30.549440    -15.921034    12.387843    5.195014    -19.514887    0.000000    0.000000    0.000000    
16.244017    154.855698    -109.327164    -0.606855    -9.186496    45.167385    -2.766089    2.447625    -1.294064    -3.483662    2.045020    -0.389280    1.987407    8.724750    -19.666492    19.634535    -2.488776    -17.510744    2.916924    6.402556    -15.749615    -24.289261    1.420877    -37.843876    20.460934    -35.619171    -36.099751    0.621232    -30.044853    -19.827023    -1.027665    5.981569    -5.818073    32.729298    -13.672656    49.792446    -25.851933    -14.422681    65.442871    -13.497080    -2.019666    36.432114    19.616499    -6.371373    -1.905774    -16.171448    40.737446    -16.674728    8.142877    -27.568766    43.406788    0.000000    0.000000    0.000000    -17.841539    -14.308969    -15.299461    13.493456    30.548075    -15.913589    12.416352    5.167381    -19.531384    0.000000    0.000000    0.000000    
16.250151    154.861038    -109.319427    -0.605639    -9.184183    45.192619    -2.756953    2.430669    -1.291425    -3.503752    2.062543    -0.387288    1.995680    8.720851    -19.667112    19.607195    -2.497058    -17.515018    2.920227    6.415141    -15.741487    -24.277027    1.441806    -37.773979    20.682137    -35.684704    -35.928082    0.632971    -30.081396    -19.730400    -1.028770    5.974212    -5.814633    32.725731    -13.691588    49.790764    -25.852417    -14.452610    65.438690    -13.464016    -2.046337    36.475437    19.607395    -6.426258    -1.916337    -16.164646    40.722900    -16.692938    8.109796    -27.475250    43.444092    0.000000    0.000000    0.000000    -17.840734    -14.296560    -15.316771    13.484834    30.542625    -15.927320    12.386282    5.176220    -19.524603    0.000000    0.000000    0.000000    
16.252825    154.865448    -109.314194    -0.602418    -9.174921    45.213760    -2.765702    2.423394    -1.284953    -3.506977    2.053854    -0.385281    2.004154    8.749385    -19.665127    19.587061    -2.529433    -17.510746    2.912703    6.426977    -15.747965    -24.261557    1.457042    -37.686260    20.811510    -35.783707    -35.836887    0.523982    -30.149216    -19.805773    -1.039144    5.973219    -5.811336    32.723938    -13.696868    49.791729    -25.873762    -14.471184    65.420471    -13.469569    -2.054400    36.442261    19.598452    -6.432936    -1.903678    -16.139074    40.719589    -16.730564    8.099665    -27.468277    43.437279    0.000000    0.000000    0.000000    -17.845377    -14.290977    -15.320790    13.469631    30.542753    -15.909523    12.401392    5.162966    -19.531860    0.000000    0.000000    0.000000    
16.258045    154.869614    -109.306122    -0.608943    -9.170434    45.237804    -2.764749    2.406556    -1.284531    -3.506867    2.058466    -0.384987    2.018275    8.743436    -19.665312    19.544151    -2.536005    -17.517801    2.907953    6.456553    -15.733600    -24.249521    1.463166    -37.643723    20.961136    -35.802837    -35.734184    0.700620    -30.170425    -19.695858    -1.046741    5.969561    -5.813139    32.717049    -13.692975    49.798187    -25.895363    -14.512938    65.396324    -13.422877    -2.073817    36.434525    19.600876    -6.444625    -1.902776    -16.127708    40.716278    -16.740221    8.083773    -27.471827    43.424156    0.000000    0.000000    0.000000    -17.842152    -14.285028    -15.330505    13.467076    30.537161    -15.912045    12.402961    5.157437    -19.552423    0.000000    0.000000    0.000000    
16.259888    154.872665    -109.298515    -0.615572    -9.161561    45.262123    -2.767063    2.385520    -1.282675    -3.505780    2.063503    -0.384086    2.022100    8.736711    -19.667530    19.505220    -2.521415    -17.529263    2.900472    6.464911    -15.737674    -24.236126    1.509117    -37.581512    21.116295    -35.861656    -35.649105    0.740030    -30.209326    -19.677191    -1.061508    5.965689    -5.808772    32.730286    -13.709879    49.804184    -25.898567    -14.522931    65.392654    -13.426191    -2.086045    36.447514    19.609238    -6.408527    -1.916039    -16.130344    40.712196    -16.733719    8.118396    -27.537682    43.374443    0.000000    0.000000    0.000000    -17.842482    -14.282744    -15.343768    13.461815    30.532553    -15.916553    12.404783    5.147723    -19.556402    0.000000    0.000000    0.000000    
16.265717    154.876114    -109.292519    -0.616039    -9.158432    45.288300    -2.765344    2.378635    -1.283500    -3.505590    2.065097    -0.384165    2.123496    8.766043    -19.655075    19.335197    -2.640263    -17.530075    2.888237    6.475234    -15.731210    -24.253872    1.489334    -37.545670    21.195299    -35.896202    -35.601559    0.615843    -30.213690    -19.781130    -1.073869    5.965467    -5.824819    32.746223    -13.716601    49.832890    -25.912621    -14.530435    65.371780    -13.406886    -2.086716    36.464153    19.608076    -6.417772    -1.931997    -16.128178    40.709316    -16.754017    8.114882    -27.534595    43.378925    0.000000    0.000000    0.000000    -17.844463    -14.275666    -15.358018    13.448593    30.539389    -15.912260    12.414890    5.142812    -19.555435    0.000000    0.000000    0.000000    
16.269098    154.877029    -109.285118    -0.619938    -9.161053    45.312172    -2.759217    2.371004    -1.284993    -3.508814    2.062788    -0.384592    2.020655    8.717854    -19.663618    19.463015    -2.489893    -17.537439    2.879771    6.492426    -15.729906    -24.241505    1.555638    -37.524586    21.370970    -35.980106    -35.487732    0.541505    -30.262007    -19.806700    -1.077889    5.956989    -5.812806    32.732483    -13.694388    49.823021    -25.944967    -14.581306    65.339279    -13.374732    -2.123459    36.514874    19.611740    -6.476533    -1.944052    -16.139084    40.701160    -16.748102    8.084504    -27.448668    43.406773    0.000000    0.000000    0.000000    -17.841805    -14.268679    -15.363280    13.450447    30.544065    -15.914366    12.420994    5.139170    -19.568125    0.000000    0.000000    0.000000    
16.273430    154.881699    -109.280441    -0.622230    -9.158067    45.335125    -2.758547    2.360598    -1.285689    -3.509326    2.067837    -0.384605    2.130187    8.753986    -19.653955    19.299175    -2.614629    -17.539673    2.876147    6.513870    -15.724123    -24.260248    1.561364    -37.532211    21.472734    -36.009552    -35.429970    0.771793    -30.308369    -19.641699    -1.082940    5.959471    -5.818616    32.751606    -13.704731    49.850266    -25.968874    -14.587332    65.316467    -13.376122    -2.123245    36.529026    19.608574    -6.485898    -1.940916    -16.119602    40.702072    -16.770821    8.073175    -27.446177    43.401875    0.000000    0.000000    0.000000    -17.844723    -14.263146    -15.379806    13.440100    30.545774    -15.921476    12.438266    5.143806    -19.561319    0.000000    0.000000    0.000000    
16.278713    154.885025    -109.277534    -0.624215    -9.153781    45.356155    -2.759146    2.346791    -1.288230    -3.509567    2.071558    -0.385242    2.003109    8.711488    -19.667387    19.471817    -2.458848    -17.544104    2.862612    6.534375    -15.711786    -24.273026    1.580988    -37.546448    21.582359    -36.028297    -35.364452    0.713987    -30.300406    -19.682962    -1.084751    5.962790    -5.810135    32.745132    -13.689007    49.864246    -26.016409    -14.626578    65.276123    -13.366601    -2.139301    36.513870    19.609921    -6.489308    -1.956840    -16.132343    40.683247    -16.763445    8.080854    -27.442810    43.404583    0.000000    0.000000    0.000000    -17.854750    -14.262889    -15.369610    13.457215    30.552906    -15.919909    12.457710    5.138994    -19.596699    0.000000    0.000000    0.000000    
16.284822    154.891891    -109.272530    -0.611895    -9.150723    45.378128    -2.776481    2.343136    -1.287253    -3.502138    2.080770    -0.384855    2.135439    8.730073    -19.650215    19.275133    -2.573582    -17.547293    2.858266    6.557027    -15.701127    -24.283363    1.633970    -37.582771    21.745523    -36.073242    -35.263126    0.632057    -30.308117    -19.715805    -1.079519    5.946693    -5.804998    32.747787    -13.692563    49.868633    -26.043066    -14.626513    65.255463    -13.403929    -2.141837    36.526642    19.598871    -6.479535    -1.969922    -16.125921    40.663292    -16.788132    8.071106    -27.430813    43.406216    0.000000    0.000000    0.000000    -17.870743    -14.248512    -15.372185    13.462081    30.551769    -15.943810    12.467575    5.150019    -19.596115    0.000000    0.000000    0.000000    
16.288656    154.898926    -109.270561    -0.610030    -9.149155    45.391014    -2.786480    2.331120    -1.279555    -3.487400    2.088856    -0.382256    2.116721    8.735267    -19.648117    19.293287    -2.563714    -17.542368    2.836733    6.578285    -15.699753    -24.316360    1.610204    -37.627140    21.798990    -36.060783    -35.220795    0.602367    -30.283167    -19.773792    -1.086238    5.961518    -5.813525    32.780895    -13.720297    49.910664    -26.029232    -14.618217    65.247345    -13.370275    -2.135521    36.536144    19.592777    -6.476765    -1.950394    -16.098198    40.652805    -16.798693    8.059289    -27.423006    43.384106    0.000000    0.000000    0.000000    -17.876894    -14.246537    -15.364242    13.469985    30.556198    -15.933704    12.476244    5.152336    -19.627598    0.000000    0.000000    0.000000    
16.289829    154.908890    -109.269669    -0.607068    -9.145445    45.404301    -2.794816    2.323916    -1.271430    -3.488008    2.092984    -0.379431    2.136653    8.740650    -19.652546    19.282869    -2.573565    -17.548380    2.828387    6.600029    -15.706234    -24.341026    1.609746    -37.675655    21.889790    -36.061588    -35.154526    0.537071    -30.260698    -19.822769    -1.079200    5.958339    -5.803227    32.779690    -13.709177    49.906738    -26.058908    -14.654650    65.227806    -13.383162    -2.161995    36.524330    19.587923    -6.476334    -1.961606    -16.096161    40.637772    -16.788645    8.037907    -27.412651    43.364914    0.000000    0.000000    0.000000    -17.881763    -14.244937    -15.361647    13.467636    30.555130    -15.944933    12.495563    5.169205    -19.635233    0.000000    0.000000    0.000000    
